PathFileType	4	(X/Y/Z)	C:/Users/opensim2020/Desktop/walking_exp_matlab/subject06_walking20_straight_03.trc																																																																																																																															
DataRate	CameraRate	NumFrames	NumMarkers	Units	OrigDataRate	OrigDataStartFrame	OrigNumFrames																																																																																																																											
100	100	4	43	mm	100	1780	132																																																																																																																											
Frame#	Time	LFHD			RFHD			LBHD			RBHD			C7			T10			CLAV			STRN			RBAK			LSHO			LUPA			LELB			LFRM			LWRA			LWRB			LFIN			RSHO			RUPA			RELB			RFRM			RWRA			RWRB			RFIN			LASI			RASI			LPSI			RPSI			LTHI			LKNE			LTIB			LANK			LHEE			LTOE			RTHI			RKNE			RTIB			RANK			RHEE			RTOE			*39			*40			*41			*42		
		X1	Y1	Z1	X2	Y2	Z2	X3	Y3	Z3	X4	Y4	Z4	X5	Y5	Z5	X6	Y6	Z6	X7	Y7	Z7	X8	Y8	Z8	X9	Y9	Z9	X10	Y10	Z10	X11	Y11	Z11	X12	Y12	Z12	X13	Y13	Z13	X14	Y14	Z14	X15	Y15	Z15	X16	Y16	Z16	X17	Y17	Z17	X18	Y18	Z18	X19	Y19	Z19	X20	Y20	Z20	X21	Y21	Z21	X22	Y22	Z22	X23	Y23	Z23	X24	Y24	Z24	X25	Y25	Z25	X26	Y26	Z26	X27	Y27	Z27	X28	Y28	Z28	X29	Y29	Z29	X30	Y30	Z30	X31	Y31	Z31	X32	Y32	Z32	X33	Y33	Z33	X34	Y34	Z34	X35	Y35	Z35	X36	Y36	Z36	X37	Y37	Z37	X38	Y38	Z38	X39	Y39	Z39	X40	Y40	Z40	X41	Y41	Z41	X42	Y42	Z42	X43	Y43	Z43
																																																																																																																																		
100	0.99	412.23898	1655.63623	-1047.85095	391.71652	1634.81213	-919.1944	281.07043	1604.60266	-1074.12573	261.59711	1588.39551	-947.34137	270.81262	1441.57019	-1024.12207	232.01224	1113.71619	-1016.77704	379.21222	1362.30737	-1013.87073	416.62277	1187.05859	-1021.88849	188.89734	1272.09607	-955.4361	336.62234	1398.77319	-1178.91919	351.27341	1202.36389	-1262.75928	360.2373	1090.71606	-1284.08447	434.02008	959.56561	-1304.9563	528.54456	875.4278	-1255.15857	478.88199	849.09241	-1298.23364	547.6051	791.06116	-1295.0918	319.27832	1392.43872	-856.76831	238.42862	1205.44495	-778.92999	221.81163	1083.95105	-768.14465	210.1321	964.0567	-750.52881	243.23192	814.76953	-775.24994	185.81367	827.96808	-742.61536	203.38501	745.01868	-739.07819	404.79883	953.10651	-1127.79626	407.36273	956.60181	-908.32581	249.0144	982.79193	-1095.44946	257.35541	978.45007	-927.55652	312.51428	641.38434	-1176.97302	285.50909	478.86984	-1149.53711	201.444	233.40242	-1137.88208	162.5873	67.36324	-1085.91321	115.06577	58.54931	-1044.14563	302.44769	34.06693	-1071.72278	450.22461	640.55066	-846.04968	504.04694	527.86768	-870.67822	468.87244	265.35358	-876.62726	452.58826	80.85372	-922.18457	416.19528	55.98169	-971.04498	599.26227	47.24753	-909.69098	304.29279	1691.55347	-1003.02313	NaN	NaN	NaN	NaN	NaN	NaN	NaN	NaN	NaN
101	1	427.17795	1653.3103	-1046.59924	406.22437	1632.10547	-918.04498	296.05725	1602.10303	-1073.4408	276.10281	1585.55566	-946.77045	285.68924	1438.92053	-1023.80719	246.72688	1111.07703	-1016.08734	394.19144	1359.64636	-1013.50446	431.50378	1184.39551	-1021.92566	203.64299	1269.23376	-955.69305	351.69904	1396.53027	-1178.55737	368.20663	1200.32593	-1262.64502	379.25723	1089.13611	-1284.3407	457.9097	961.00446	-1304.02771	555.73108	881.72351	-1253.04883	507.57712	852.58673	-1296.01782	579.19934	798.3136	-1292.28931	333.72562	1389.43188	-856.31421	251.50615	1202.77966	-779.27661	233.98076	1081.4137	-768.4469	220.38081	961.67474	-750.72925	250.98451	811.7475	-774.87335	193.46208	826.15784	-742.65363	209.55457	742.90808	-738.67065	418.61682	950.32715	-1127.9519	422.57501	953.75647	-908.4613	263.12363	980.20294	-1094.60022	272.45648	975.599	-926.74274	322.8504	639.4873	-1176.95801	293.20563	477.36533	-1149.51343	204.64281	233.33237	-1137.8136	163.24483	67.85858	-1085.4967	115.66483	59.5299	-1043.56042	302.6488	33.84699	-1071.75452	464.11667	637.00427	-845.70868	518.28644	524.5954	-870.86047	496.49573	260.86676	-877.2934	494.2283	75.49865	-922.87213	460.22519	48.98951	-972.56445	642.81781	49.75338	-909.06439	318.90613	1688.78564	-1002.06635	NaN	NaN	NaN	NaN	NaN	NaN	NaN	NaN	NaN
102	1.01	442.05804	1650.63904	-1045.2323	420.5932	1629.10461	-916.85114	311.15109	1599.46179	-1072.74292	290.78781	1582.60242	-946.18781	299.75824	1436.55432	-1023.66449	261.62415	1108.22791	-1015.46057	409.20978	1356.88513	-1012.98969	446.44183	1181.60754	-1021.85309	218.73834	1265.9657	-955.94098	366.89185	1394.1947	-1178.09265	385.25873	1198.36963	-1262.47668	398.11197	1087.40686	-1284.35547	481.31055	962.49408	-1302.7616	582.11285	888.15656	-1250.74377	535.8717	856.56268	-1293.80273	609.97961	806.02203	-1289.42065	348.13507	1386.37915	-855.89948	264.6705	1200.06274	-779.53375	246.47777	1078.7998	-768.65149	230.96227	959.31604	-750.79382	259.10117	808.81927	-774.3847	201.68466	824.28821	-742.60522	216.27658	740.82013	-738.12476	432.72406	947.44946	-1128.2428	438.04193	950.77917	-908.5542	277.14191	977.54517	-1093.72095	287.63126	972.53345	-925.87372	333.57721	637.68677	-1176.50989	301.34109	475.77298	-1149.3728	208.3009	233.23718	-1137.64514	163.97343	68.44812	-1085.04663	116.36543	60.75826	-1042.91968	303.10901	33.72691	-1071.68555	476.88989	632.72998	-845.55908	531.87024	520.59967	-871.34985	523.21185	256.78339	-878.01025	534.80804	71.59035	-923.43066	502.95035	44.93037	-973.35187	684.76276	52.8584	-907.92902	333.63919	1686.01624	-1001.05042	NaN	NaN	NaN	NaN	NaN	NaN	NaN	NaN	NaN
103	1.02	457.19006	1648.06067	-1043.90076	434.99548	1626.02319	-915.70496	326.36072	1596.75696	-1072.01038	305.47437	1579.55896	-945.60706	314.76468	1433.81006	-1023.30762	276.52728	1105.29895	-1014.73096	424.3562	1354.05151	-1012.44031	461.4715	1178.76538	-1021.70856	233.61929	1262.84485	-955.97192	382.19431	1391.73218	-1177.49487	402.16287	1196.42688	-1262.40027	416.6911	1085.84937	-1284.38123	504.2587	964.005	-1301.54907	607.7774	894.66345	-1248.19153	563.09009	860.41187	-1291.20972	639.88757	813.9939	-1286.54797	362.72031	1383.25476	-855.43677	278.00186	1197.33325	-779.70679	259.11279	1076.21448	-768.6817	241.91592	956.94403	-750.78796	267.88956	805.90894	-773.65302	210.43388	822.46863	-742.40356	223.59584	738.80176	-737.47742	446.90887	944.55902	-1128.30566	453.45813	947.53815	-908.50739	290.83087	974.72467	-1092.83142	302.91571	969.35181	-924.83002	344.40222	635.79333	-1176.43103	309.96054	474.2197	-1149.44812	212.33357	233.22369	-1137.3772	164.73921	69.21737	-1084.28333	117.23158	62.22771	-1041.88	303.4465	33.48681	-1071.70776	488.86383	627.78101	-845.40991	544.90253	516.13623	-871.94305	549.20105	253.09149	-878.95703	573.91986	69.22228	-923.77472	543.15656	42.96965	-973.83014	724.84167	55.52339	-906.84357	348.45413	1683.13818	-999.99976	NaN	NaN	NaN	NaN	NaN	NaN	NaN	NaN	NaN
